<?xml version="1.0" encoding="UTF-8"?>
<svg version="1.1" xmlns="http://www.w3.org/2000/svg" width="945" height="945">
<path d="M0 0 C2.51423945 0.36427617 3.6931459 0.63246352 5.34936523 2.61621094 C5.74841064 3.31520508 6.14745605 4.01419922 6.55859375 4.734375 C7.02015869 5.52537598 7.48172363 6.31637695 7.95727539 7.13134766 C8.44574951 7.99550293 8.93422363 8.8596582 9.4375 9.75 C10.50625931 11.5868421 11.57662438 13.42275065 12.6484375 15.2578125 C13.19983398 16.20817383 13.75123047 17.15853516 14.31933594 18.13769531 C16.98806624 22.68275546 19.77496643 27.15219422 22.5625 31.625 C23.09689697 32.49036377 23.63129395 33.35572754 24.18188477 34.24731445 C26.84788074 38.56324641 29.54398204 42.85471096 32.30078125 47.11328125 C32.81890381 47.92651855 33.33702637 48.73975586 33.87084961 49.57763672 C34.84610019 51.10770848 35.83448131 52.62952041 36.83813477 54.14111328 C38.82202727 57.28089024 39.99788439 59.19712516 40.0078125 62.96484375 C38.68784004 66.94010963 37.13750384 70.77126985 35.5 74.625 C20.82878811 110.4344056 12.48138243 148.51507215 9 187 C8.88785156 188.16660156 8.77570313 189.33320313 8.66015625 190.53515625 C3.503913 255.44731443 15.48533149 322.99658171 43 382 C43.83604971 383.84369912 44.67198256 385.68745124 45.5078125 387.53125 C54.08000036 406.17235694 64.14959782 424.23010571 76 441 C76.77217369 442.10934836 77.54430676 443.218725 78.31640625 444.328125 C96.49983826 470.27462224 117.69257771 495.56375978 142 516 C142.88171875 516.77085937 143.7634375 517.54171875 144.671875 518.3359375 C223.1368328 586.59198611 327.36519969 620.02303055 430.75 613.3125 C514.45192255 607.01089195 595.67106658 574.36955927 659 519 C661.31 517.02 663.62 515.04 666 513 C505.95 512.67 345.9 512.34 181 512 C182.42034313 507.73897062 183.57976809 504.67204857 185.73046875 500.89453125 C186.27823975 499.92531738 186.82601074 498.95610352 187.39038086 497.95751953 C187.98343018 496.91966309 188.57647949 495.88180664 189.1875 494.8125 C190.46405775 492.55628151 191.74008162 490.29976087 193.015625 488.04296875 C193.34449203 487.46268921 193.67335907 486.88240967 194.01219177 486.2845459 C197.52472232 480.08547777 200.98269194 473.85639113 204.4375 467.625 C205.69655708 465.35673891 206.95567197 463.08850991 208.21484375 460.8203125 C208.83987793 459.69399414 209.46491211 458.56767578 210.10888672 457.40722656 C213.23745052 451.77048032 216.36886077 446.1353159 219.5 440.5 C220.75001382 438.25000768 222.00001382 436.00000768 223.25 433.75 C225.75 429.25 228.25 424.75 230.75 420.25 C231.6783667 418.5788916 231.6783667 418.5788916 232.62548828 416.87402344 C233.87375009 414.62721721 235.12212224 412.38047227 236.37060547 410.13378906 C239.52311379 404.46042553 242.67361316 398.78596278 245.8203125 393.109375 C251.65293284 382.59168202 257.50261111 372.08537931 263.4375 361.625 C269.3546037 351.19250008 275.1521153 340.69594416 280.9364624 330.1895752 C281.27325012 329.57787476 281.61003784 328.96617432 281.95703125 328.3359375 C282.2939801 327.72391479 282.63092896 327.11189209 282.97808838 326.48132324 C288.33517071 316.75526767 293.73942113 307.05533549 299.13671875 297.3515625 C301.01978871 293.96440522 302.90083173 290.57613003 304.78125 287.1875 C310.83449355 276.28057193 316.89969917 265.3806887 323 254.5 C330.36965193 241.35346178 337.69724528 228.18381068 345 215 C345.3297583 214.40471497 345.6595166 213.80942993 345.99926758 213.19610596 C348.3770007 208.90294479 350.7520768 204.60832151 353.125 200.3125 C353.4607605 199.70479767 353.796521 199.09709534 354.14245605 198.47097778 C358.14605928 191.22123261 362.11150672 183.95244359 366.0300293 176.65625 C371.34524986 166.76292656 376.86124683 157.02019769 382.5612793 147.34375 C388.92604902 136.50026282 394.95998066 125.47960972 401.00378418 114.45561218 C404.49938775 108.0820895 408.02877775 101.72745733 411.5625 95.375 C412.79298273 93.16276819 414.02345147 90.9505286 415.25390625 88.73828125 C415.86508301 87.6395166 416.47625977 86.54075195 417.10595703 85.40869141 C418.74364878 82.4613529 420.37891655 79.51270057 422.01243591 76.56304932 C423.352279 74.1437455 424.69308054 71.7249734 426.03390503 69.30621338 C426.96173675 67.63156169 427.88824557 65.95617726 428.81469727 64.28076172 C429.67985962 62.72059326 429.67985962 62.72059326 430.5625 61.12890625 C431.30693359 59.78421265 431.30693359 59.78421265 432.06640625 58.41235352 C432.70449219 57.28627686 433.34257812 56.1602002 434 55 C434.59543358 53.50879135 434.59543358 53.50879135 435.20289612 51.98745728 C436.82137297 48.42623799 438.28295982 45.82673076 441 43 C446.40160899 41.31829499 451.63715133 41.59577775 457.21484375 41.828125 C458.79661093 41.85053111 460.37846188 41.8676011 461.96034241 41.87957764 C466.10712111 41.92521536 470.24878571 42.04289063 474.39355469 42.17602539 C478.62950435 42.29920128 482.86628807 42.3536748 487.10351562 42.4140625 C495.40468081 42.54243377 503.70170291 42.74697894 512 43 C511.25504665 47.16350828 510.0054612 50.17695456 507.9296875 53.8828125 C507.28829834 55.03604004 506.64690918 56.18926758 505.98608398 57.37744141 C505.28249001 58.62668432 504.5787926 59.87586898 503.875 61.125 C503.14786725 62.42720797 502.42139597 63.72978549 501.69555664 65.03271484 C500.20002346 67.71513898 498.7008991 70.39550503 497.19873047 73.07421875 C494.54244424 77.81289056 491.90808563 82.56358165 489.27368164 87.31445312 C487.42446977 90.64849288 485.5720751 93.98074516 483.71875 97.3125 C481.21651181 101.81126087 478.71656546 106.31128203 476.21875 110.8125 C469.5923106 122.7522307 462.94512447 134.67987098 456.26708984 146.59082031 C450.76404904 156.41072866 445.29583888 166.24980393 439.8359375 176.09375 C437.51422245 180.27836212 435.18624339 184.45931732 432.8495636 188.6355896 C431.46136664 191.11701089 430.07533382 193.59963796 428.68942261 196.08233643 C427.71047718 197.83388869 426.72844409 199.58371413 425.74633789 201.33349609 C425.15328857 202.39648926 424.56023926 203.45948242 423.94921875 204.5546875 C423.16550903 205.95436768 423.16550903 205.95436768 422.3659668 207.38232422 C420.40195787 211.07800316 420.40195787 211.07800316 419 215 C419.68054628 217.39043026 419.68054628 217.39043026 421.15625 219.67578125 C421.67678955 220.57321045 422.1973291 221.47063965 422.73364258 222.39526367 C423.6079895 223.83929565 423.6079895 223.83929565 424.5 225.3125 C425.09514404 226.32868408 425.69028809 227.34486816 426.3034668 228.3918457 C427.56100753 230.53560933 428.82641693 232.674774 430.09912109 234.80957031 C432.46462308 238.77982203 434.78932141 242.77302177 437.11303711 246.76782227 C438.84912976 249.75042993 440.59256235 252.72867566 442.3359375 255.70703125 C446.24635654 262.40502345 450.09603739 269.13732937 453.9375 275.875 C459.37375734 285.40865579 464.82806611 294.93146368 470.3125 304.4375 C470.9408374 305.52724121 471.5691748 306.61698242 472.21655273 307.73974609 C474.77979259 312.17958693 477.35273762 316.60957472 480 321 C484.51181394 314.52535161 488.36952931 307.84348508 492.0625 300.875 C496.43252445 292.71883615 500.86724592 284.60826963 505.4375 276.5625 C506.23824951 275.15242676 506.23824951 275.15242676 507.05517578 273.71386719 C508.14738983 271.79081248 509.23967551 269.86779845 510.33203125 267.94482422 C513.2186839 262.84839502 516.07803831 257.73672022 518.9375 252.625 C519.51878662 251.58609619 520.10007324 250.54719238 520.69897461 249.47680664 C521.87740911 247.37035293 523.05571289 245.26382608 524.23388672 243.15722656 C527.15398137 237.93706289 530.07713566 232.71861321 533 227.5 C534.16668154 225.41667499 535.3333482 223.33334166 536.5 221.25 C554 190 554 190 571.5 158.75 C572.07758057 157.71858887 572.65516113 156.68717773 573.25024414 155.62451172 C574.41603752 153.54277268 575.58189032 151.46106691 576.74780273 149.37939453 C579.6783206 144.14694077 582.60777916 138.91389914 585.53515625 133.6796875 C591.67354619 122.70681676 597.8352562 111.74793213 604.03320312 100.80859375 C608.25044844 93.35319757 612.41147521 85.86742821 616.5625 78.375 C621.28854101 69.84920981 626.04499089 61.34238711 630.875 52.875 C631.3810376 51.98603027 631.8870752 51.09706055 632.40844727 50.18115234 C633.09958618 48.97386475 633.09958618 48.97386475 633.8046875 47.7421875 C634.20671387 47.0394873 634.60874023 46.33678711 635.02294922 45.61279297 C636 44 636 44 637 43 C639.20867831 42.90567015 641.42041521 42.88257569 643.63110352 42.88647461 C644.32375305 42.88632858 645.01640259 42.88618256 645.7300415 42.8860321 C648.02969446 42.88673126 650.32926737 42.89452372 652.62890625 42.90234375 C654.21931412 42.90420792 655.80972257 42.90563183 657.40013123 42.90663147 C661.5939593 42.91045671 665.78775295 42.92028705 669.98156738 42.93133545 C674.25788914 42.94154943 678.53421644 42.94612906 682.81054688 42.95117188 C691.20704708 42.96190931 699.60351926 42.97898581 708 43 C707.32879473 46.65562175 706.45539921 49.34642408 704.5859375 52.5703125 C704.07998047 53.45267578 703.57402344 54.33503906 703.05273438 55.24414062 C702.49908203 56.19482422 701.94542969 57.14550781 701.375 58.125 C700.18382527 60.1999066 698.99376621 62.27545401 697.8046875 64.3515625 C697.18045898 65.43856445 696.55623047 66.52556641 695.91308594 67.64550781 C692.72497077 73.23569444 689.61486252 78.86877441 686.5 84.5 C681.32397518 93.83896048 676.10491086 103.15191044 670.84155273 112.44189453 C665.11337066 122.55518317 659.43948497 132.69866584 653.76611328 142.84277344 C650.84601863 148.06293711 647.92286434 153.28138679 645 158.5 C643.83331846 160.58332501 642.6666518 162.66665834 641.5 164.75 C620.5 202.25 599.5 239.75 578.5 277.25 C577.92241943 278.28141113 577.34483887 279.31282227 576.74975586 280.37548828 C575.58396248 282.45722732 574.41810968 284.53893309 573.25219727 286.62060547 C570.3216794 291.85305923 567.39222084 297.08610086 564.46484375 302.3203125 C558.85327585 312.35144606 553.22843231 322.37446046 547.5625 332.375 C542.83176102 340.72625411 538.15366674 349.10556973 533.5 357.5 C528.32300414 366.83842778 523.10491607 376.15190124 517.84155273 385.44189453 C513.89556097 392.40866918 509.97286519 399.3881694 506.0625 406.375 C505.48902832 407.39891846 504.91555664 408.42283691 504.32470703 409.4777832 C501.57287421 414.39330901 498.8253242 419.31113612 496.08851624 424.23504639 C495.12105575 425.97508519 494.15221103 427.71435413 493.18334961 429.45361328 C491.96297935 431.64464213 490.74493198 433.83696688 489.52954102 436.03076172 C488.97967529 437.01705566 488.42980957 438.00334961 487.86328125 439.01953125 C487.38157471 439.88682861 486.89986816 440.75412598 486.40356445 441.64770508 C485.06419046 443.8924204 483.6093701 445.94270689 482 448 C478.19017462 446.53326335 476.95122257 444.72788578 475.0390625 441.1796875 C474.49266113 440.18219482 473.94625977 439.18470215 473.38330078 438.15698242 C472.80306152 437.07392822 472.22282227 435.99087402 471.625 434.875 C470.36649994 432.57577281 469.10603434 430.27762053 467.84375 427.98046875 C467.52310577 427.39435318 467.20246155 426.80823761 466.87210083 426.20436096 C463.72866429 420.46922395 460.44134943 414.82382179 457.125 409.1875 C452.04737874 400.53202509 447.03210547 391.84284185 442.0625 383.125 C436.89945545 374.06910492 431.71642356 365.02530621 426.5 356 C420.94503946 346.38896683 415.42987941 336.75582894 409.93243408 327.11184692 C404.58206176 317.72918931 399.16849874 308.3848528 393.69116211 299.07568359 C389.99960919 292.78404222 386.45778644 286.42304385 383 280 C378.74158526 284.758804 376.02733698 290.26990424 373.0625 295.875 C368.69660973 304.03415424 364.26642406 312.14590699 359.6875 320.1875 C354.74456947 328.87982418 349.88263119 337.6142259 345.0625 346.375 C339.4885 356.5039128 333.87454344 366.60892941 328.21679688 376.69140625 C322.08951561 387.6136494 316.01181413 398.56326102 309.93505859 409.51367188 C306.90976592 414.96423702 303.88195495 420.41340249 300.85421753 425.86260986 C299.31676844 428.62970199 297.77948432 431.39688577 296.2421875 434.1640625 C293.49479167 439.109375 290.74739583 444.0546875 288 449 C455.97 449.33 623.94 449.66 797 450 C796.09302084 454.5348958 795.40529374 456.33933221 792.97265625 460.02734375 C792.35028076 460.97754395 791.72790527 461.92774414 791.08666992 462.90673828 C790.41869385 463.90688965 789.75071777 464.90704102 789.0625 465.9375 C788.38098877 466.96858887 787.69947754 467.99967773 786.99731445 469.06201172 C775.63215787 486.17751615 763.41863812 502.44516447 750 518 C749.36191406 518.73992188 748.72382812 519.47984375 748.06640625 520.2421875 C746.38877255 522.17165998 744.69579395 524.08647225 743 526 C742.36989014 526.71494629 741.73978027 527.42989258 741.09057617 528.16650391 C735.70019155 534.22733438 730.10899328 540.04710438 724.36108398 545.76928711 C722.93160283 547.19337492 721.50759489 548.62278044 720.08398438 550.05273438 C714.88435084 555.24513112 709.59932067 560.2426472 704 565 C703.03578125 565.845625 702.0715625 566.69125 701.078125 567.5625 C691.42842031 575.87937255 681.26607636 583.46472042 671 591 C670.28859863 591.5273877 669.57719727 592.05477539 668.84423828 592.59814453 C603.48535834 640.92877788 521.9193963 669.89332292 441 676 C439.35704956 676.12918823 439.35704956 676.12918823 437.6809082 676.26098633 C426.18265487 677.08004998 414.71190181 677.2005192 403.1875 677.1875 C402.19588867 677.18689575 401.20427734 677.1862915 400.18261719 677.18566895 C384.37398893 677.1595926 368.72372725 676.78205471 353 675 C351.85821289 674.87109375 350.71642578 674.7421875 349.54003906 674.609375 C284.57165111 666.98472311 219.54316332 646.02773032 164 611 C162.97640381 610.35949707 162.97640381 610.35949707 161.93212891 609.70605469 C145.97300955 599.68087593 130.6680591 588.83098961 116 577 C115.03449219 576.22914063 114.06898438 575.45828125 113.07421875 574.6640625 C107.4705495 570.14625278 102.08791268 565.43891156 96.80078125 560.5546875 C94.66996506 558.61109784 92.51602631 556.72469913 90.328125 554.84765625 C85.13571707 550.31752341 80.297666 545.44348041 75.4375 540.5625 C74.53064453 539.65951172 73.62378906 538.75652344 72.68945312 537.82617188 C67.58284648 532.71215898 62.687225 527.49917357 58 522 C57.03918104 520.90500183 56.07699455 519.81120172 55.11328125 518.71875 C48.19103193 510.79435526 41.75166827 502.59805048 35.54296875 494.10498047 C33.97731075 491.96904641 32.39569179 489.84561629 30.8125 487.72265625 C17.53984511 469.79636927 6.36111551 450.73010051 -4 431 C-4.4935498 430.06881348 -4.98709961 429.13762695 -5.49560547 428.17822266 C-45.13042328 352.99717709 -60.34400981 266.5081226 -35.14077759 82.83932495 C-26.19546779 54.28463845 -14.66201173 26.1099451 0 0 Z " fill="#E81B23" transform="translate(71,254)"/>
<path d="M0 0 C1.15120331 0.00215515 2.30240662 0.0043103 3.48849487 0.00653076 C66.9535186 0.19611762 130.11533202 12.8822473 188 39.3125 C189.13453613 39.83038086 190.26907227 40.34826172 191.43798828 40.88183594 C224.80526605 56.26553848 256.3164487 75.29523973 285 98.3125 C286.02996094 99.13105469 287.05992187 99.94960937 288.12109375 100.79296875 C293.37234236 105.02455743 298.44069675 109.42641191 303.41796875 113.9765625 C304.79992852 115.2268075 306.18748103 116.47166107 307.6081543 117.67773438 C313.92578339 123.06549237 319.77778687 128.90418099 325.64477539 134.77197266 C327.42510252 136.55011772 329.21328377 138.32009561 331.00195312 140.08984375 C337.01393942 146.07250328 342.69064194 152.12849152 347.96850586 158.78369141 C349.94898255 161.24899336 352.01151281 163.60078463 354.1328125 165.9453125 C373.35497764 187.36972075 389.33093776 213.06230813 403 238.3125 C403.72944824 239.64015381 403.72944824 239.64015381 404.47363281 240.99462891 C431.08891287 289.58178246 447.79849477 343.44618257 455 398.3125 C455.22647217 400.02614746 455.22647217 400.02614746 455.45751953 401.77441406 C457.79940766 420.44383506 458.28756392 439.00985164 458.3125 457.8125 C458.31608521 458.89326813 458.31967041 459.97403625 458.32336426 461.08755493 C458.3598149 481.49739197 457.26066297 501.85974724 454.25 522.0625 C454.08153564 523.20895996 453.91307129 524.35541992 453.73950195 525.53662109 C446.48349952 573.14504683 433.0936854 622.27023583 409 664.3125 C385.64799531 664.47124088 362.34044517 664.03137348 339 663.3125 C339.6671419 659.97101022 340.93084091 657.37725685 342.58984375 654.41015625 C343.1219043 653.44843506 343.65396484 652.48671387 344.20214844 651.49584961 C344.77481445 650.46596924 345.34748047 649.43608887 345.9375 648.375 C377.89100669 590.01729825 395.2882497 525.09763475 395.1875 458.4375 C395.18656342 457.62825073 395.18562683 456.81900146 395.18466187 455.98522949 C394.96048291 366.01768552 363.50017554 278.03210034 296 196.3125 C295.16597656 195.36632812 294.33195313 194.42015625 293.47265625 193.4453125 C282.26427268 180.97620165 270.5580739 168.43766541 257.3046875 158.125 C255.09168509 156.38460488 253.05672266 154.54567485 251 152.625 C193.48287116 101.13542107 111.19449581 70.34407658 35 64.3125 C33.95223389 64.22637451 32.90446777 64.14024902 31.82495117 64.05151367 C21.56361973 63.28055795 11.34878094 63.11149897 1.0625 63.125 C0.20628052 63.12560425 -0.64993896 63.1262085 -1.53210449 63.12683105 C-15.43972099 63.15336613 -29.1849942 63.59030416 -43 65.3125 C-44.56621094 65.50585938 -44.56621094 65.50585938 -46.1640625 65.703125 C-93.58497013 71.75685789 -138.41573436 85.59940625 -181 107.3125 C-181.93505371 107.78768066 -182.87010742 108.26286133 -183.83349609 108.75244141 C-211.87258476 123.14982444 -238.15413575 141.70910046 -261.41796875 162.9765625 C-262.84710291 164.26948569 -264.28284108 165.55559686 -265.74438477 166.81176758 C-271.26195487 171.55634145 -276.43044546 176.59337058 -281.5625 181.75 C-282.37396484 182.55759766 -283.18542969 183.36519531 -284.02148438 184.19726562 C-291.33330396 191.52088799 -298.01450921 199.20518665 -304.4375 207.3125 C-304.97826172 207.99183594 -305.51902344 208.67117187 -306.07617188 209.37109375 C-307.38583327 211.01686294 -308.6931718 212.6644802 -310 214.3125 C-308.61621551 218.02228253 -306.92642183 221.32219326 -304.90234375 224.72265625 C-303.96080444 226.30904907 -303.96080444 226.30904907 -303.00024414 227.92749023 C-302.31283635 229.076764 -301.62524981 230.22593087 -300.9375 231.375 C-300.21915864 232.58071463 -299.50098143 233.78652706 -298.78295898 234.99243164 C-291.99274141 246.3808511 -285.11165454 257.71427146 -278.2129364 269.03718567 C-274.65594083 274.87534146 -271.10828923 280.71915125 -267.56149292 286.56350708 C-265.79138098 289.48007223 -264.0206597 292.39626738 -262.25 295.3125 C-261.54166375 296.47916489 -260.83333041 297.64583156 -260.125 298.8125 C-259.5990625 299.67875 -259.5990625 299.67875 -259.0625 300.5625 C-255.87499999 305.81250002 -255.87499999 305.81250002 -254.81257629 307.56237793 C-254.10399289 308.72945408 -253.39540525 309.89652764 -252.68681335 311.06359863 C-250.91977124 313.97397916 -249.15280216 316.88440397 -247.38598633 319.79492188 C-244.15332415 325.11999795 -240.92004793 330.44469733 -237.68417358 335.76782227 C-230.62158052 347.38611894 -223.56842124 359.00937303 -216.58544922 370.67578125 C-210.17501053 381.37496979 -203.68437448 392.02573097 -197.20556641 402.68359375 C-193.28221213 409.13810945 -189.36344873 415.59541379 -185.44390869 422.05224609 C-184.38581277 423.79526554 -183.32768475 425.5382655 -182.26953125 427.28125 C-181.91991333 427.85713867 -181.57029541 428.43302734 -181.21008301 429.02636719 C-179.0358034 432.60747485 -176.86038108 436.18788587 -174.68417358 439.76782227 C-167.62823688 451.37516891 -160.58144011 462.9873038 -153.60522461 474.64282227 C-149.1803399 482.0281817 -144.71778391 489.3905508 -140.25 496.75 C-139.89728027 497.33128662 -139.54456055 497.91257324 -139.18115234 498.51147461 C-138.14730367 500.21498076 -137.11271811 501.91803962 -136.078125 503.62109375 C-135.41361328 504.72437012 -134.74910156 505.82764648 -134.06445312 506.96435547 C-132.63534116 509.28209925 -131.18696836 511.54778606 -129.66992188 513.80517578 C-129.29341492 514.3784108 -128.91690796 514.95164581 -128.5289917 515.54225159 C-127.48667777 517.12429726 -126.42509701 518.69360091 -125.36230469 520.26196289 C-123.63131017 524.13808772 -123.97044205 526.23633866 -125 530.3125 C-126.03710938 532.71069336 -126.03710938 532.71069336 -127.34375 534.90234375 C-127.84044189 535.7543335 -128.33713379 536.60632324 -128.84887695 537.48413086 C-129.39374756 538.39686768 -129.93861816 539.30960449 -130.5 540.25 C-136.34608565 550.29615349 -141.88399944 560.47378544 -147.3125 570.75 C-147.88798584 571.83787308 -147.88798584 571.83787308 -148.47509766 572.94772339 C-150.65420337 577.06714232 -152.82912515 581.18873791 -155 585.3125 C-155.99 585.3125 -156.98 585.3125 -158 585.3125 C-159.5871582 583.29077148 -159.5871582 583.29077148 -161.30078125 580.43359375 C-161.94104248 579.37873779 -162.58130371 578.32388184 -163.2409668 577.23706055 C-163.93162863 576.07479661 -164.62213578 574.91244074 -165.3125 573.75 C-166.02994586 572.56031389 -166.74846441 571.37127406 -167.46801758 570.18286133 C-168.94162527 567.74566271 -170.40934613 565.3050738 -171.87207031 562.86132812 C-174.94880227 557.72361245 -178.07020241 552.61316339 -181.1875 547.5 C-181.76040771 546.55737305 -182.33331543 545.61474609 -182.92358398 544.64355469 C-187.23542441 537.55033557 -191.59262096 530.48618105 -195.96777344 523.43188477 C-205.43865628 508.16072764 -214.85747914 492.85764526 -224.1875 477.5 C-229.07754489 469.4511001 -234.00759239 461.42841344 -238.97216797 453.42529297 C-245.32335266 443.18593934 -251.63138215 432.92010094 -257.94287109 422.65625 C-259.98775428 419.33240475 -262.03457866 416.00976304 -264.08203125 412.6875 C-270.47743702 402.30786891 -276.85762975 391.91975016 -283.1875 381.5 C-288.07615669 373.45334245 -293.0052769 365.43318781 -297.96777344 357.43188477 C-307.43865628 342.16072764 -316.85747914 326.85764526 -326.1875 311.5 C-331.07754489 303.4511001 -336.00759239 295.42841344 -340.97216797 287.42529297 C-347.31434686 277.20045846 -353.61380181 266.94939316 -359.91650391 256.70019531 C-363.44311389 250.96604484 -366.97165939 245.23308568 -370.5 239.5 C-374.27704782 233.3623573 -374.27704782 233.3623573 -376.09375 230.38427734 C-377.46253492 228.17858422 -378.85284093 226.00447424 -380.28125 223.83837891 C-380.65664917 223.25824539 -381.03204834 222.67811188 -381.41882324 222.08039856 C-382.47334431 220.4526632 -383.54194346 218.83407358 -384.61132812 217.21606445 C-386 214.3125 -386 214.3125 -385.84692383 211.6484375 C-385.05354177 209.46017588 -384.24696472 207.78718016 -382.91796875 205.88671875 C-382.48693848 205.26345703 -382.0559082 204.64019531 -381.61181641 203.99804688 C-381.14179199 203.33869141 -380.67176758 202.67933594 -380.1875 202 C-379.69685059 201.30068359 -379.20620117 200.60136719 -378.70068359 199.88085938 C-367.39378579 183.86842851 -355.48995246 168.14370348 -342.1953125 153.71875 C-340.9866843 152.39399027 -339.78607087 151.0611513 -338.6237793 149.69555664 C-333.45523017 143.64133009 -327.86569171 138.02625104 -322.23022461 132.41235352 C-320.56573723 130.7532268 -318.90666553 129.08881949 -317.24804688 127.42382812 C-311.67167735 121.84365537 -306.03326927 116.40207538 -300 111.3125 C-298.97834307 110.42412336 -297.95746516 109.53484974 -296.9375 108.64453125 C-288.57380689 101.4708849 -279.90688032 94.79687594 -271 88.3125 C-270.31921387 87.8160498 -269.63842773 87.31959961 -268.93701172 86.80810547 C-253.0699983 75.29130135 -236.60458023 64.84879678 -219.33203125 55.56884766 C-216.94306351 54.2818263 -214.56562898 52.97488995 -212.1875 51.66796875 C-167.23975582 27.25082584 -117.69866273 12.40936094 -67.3125 4.5625 C-66.05671143 4.36374268 -64.80092285 4.16498535 -63.50708008 3.96020508 C-42.42932186 0.82667994 -21.28714639 -0.07251407 0 0 Z " fill="#005289" transform="translate(473,15.6875)"/>
<path d="M0 0 C2.51423945 0.36427617 3.6931459 0.63246352 5.34936523 2.61621094 C5.74841064 3.31520508 6.14745605 4.01419922 6.55859375 4.734375 C7.02015869 5.52537598 7.48172363 6.31637695 7.95727539 7.13134766 C8.44574951 7.99550293 8.93422363 8.8596582 9.4375 9.75 C10.50625931 11.5868421 11.57662438 13.42275065 12.6484375 15.2578125 C13.19983398 16.20817383 13.75123047 17.15853516 14.31933594 18.13769531 C16.98806624 22.68275546 19.77496643 27.15219422 22.5625 31.625 C23.09689697 32.49036377 23.63129395 33.35572754 24.18188477 34.24731445 C26.84788074 38.56324641 29.54398204 42.85471096 32.30078125 47.11328125 C32.81890381 47.92651855 33.33702637 48.73975586 33.87084961 49.57763672 C34.84610019 51.10770848 35.83448131 52.62952041 36.83813477 54.14111328 C38.82202727 57.28089024 39.99788439 59.19712516 40.0078125 62.96484375 C38.68784004 66.94010963 37.13750384 70.77126985 35.5 74.625 C20.82878811 110.4344056 12.48138243 148.51507215 9 187 C8.88785156 188.16660156 8.77570313 189.33320313 8.66015625 190.53515625 C3.503913 255.44731443 15.48533149 322.99658171 43 382 C43.83604971 383.84369912 44.67198256 385.68745124 45.5078125 387.53125 C54.08000036 406.17235694 64.14959782 424.23010571 76 441 C76.77217369 442.10934836 77.54430676 443.218725 78.31640625 444.328125 C96.49983826 470.27462224 117.69257771 495.56375978 142 516 C142.88171875 516.77085937 143.7634375 517.54171875 144.671875 518.3359375 C223.1368328 586.59198611 327.36519969 620.02303055 430.75 613.3125 C514.67644895 606.99398819 599.07800511 574.10511427 661.4296875 516.765625 C662.13351562 516.12109375 662.83734375 515.4765625 663.5625 514.8125 C664.14128906 514.26207031 664.72007812 513.71164062 665.31640625 513.14453125 C667 512 667 512 671 512 C671.23630127 511.43700195 671.47260254 510.87400391 671.71606445 510.29394531 C673.29807106 507.4674509 675.22864009 505.56395401 677.54296875 503.296875 C678.45240234 502.39839844 679.36183594 501.49992187 680.29882812 500.57421875 C681.26134531 499.63243069 682.22423819 498.69102645 683.1875 497.75 C689.36707229 491.68557502 695.43221686 485.635243 701 479 C701.85887817 477.98486328 701.85887817 477.98486328 702.73510742 476.94921875 C704.50121013 474.8501242 706.25344735 472.74038234 708 470.625 C708.91410645 469.52007202 708.91410645 469.52007202 709.84667969 468.39282227 C713.76600287 463.61529522 717.41211854 458.78432154 720.765625 453.58984375 C721.37664062 452.80287109 721.37664062 452.80287109 722 452 C722.66 452 723.32 452 724 452 C724 451.34 724 450.68 724 450 C748.09 450 772.18 450 797 450 C796.09302084 454.5348958 795.40529374 456.33933221 792.97265625 460.02734375 C792.35028076 460.97754395 791.72790527 461.92774414 791.08666992 462.90673828 C790.41869385 463.90688965 789.75071777 464.90704102 789.0625 465.9375 C788.38098877 466.96858887 787.69947754 467.99967773 786.99731445 469.06201172 C775.63215787 486.17751615 763.41863812 502.44516447 750 518 C749.36191406 518.73992188 748.72382812 519.47984375 748.06640625 520.2421875 C746.38877255 522.17165998 744.69579395 524.08647225 743 526 C742.36989014 526.71494629 741.73978027 527.42989258 741.09057617 528.16650391 C735.70019155 534.22733438 730.10899328 540.04710438 724.36108398 545.76928711 C722.93160283 547.19337492 721.50759489 548.62278044 720.08398438 550.05273438 C714.88435084 555.24513112 709.59932067 560.2426472 704 565 C703.03578125 565.845625 702.0715625 566.69125 701.078125 567.5625 C691.42842031 575.87937255 681.26607636 583.46472042 671 591 C670.28859863 591.5273877 669.57719727 592.05477539 668.84423828 592.59814453 C603.48535834 640.92877788 521.9193963 669.89332292 441 676 C439.35704956 676.12918823 439.35704956 676.12918823 437.6809082 676.26098633 C426.18265487 677.08004998 414.71190181 677.2005192 403.1875 677.1875 C402.19588867 677.18689575 401.20427734 677.1862915 400.18261719 677.18566895 C384.37398893 677.1595926 368.72372725 676.78205471 353 675 C351.85821289 674.87109375 350.71642578 674.7421875 349.54003906 674.609375 C284.57165111 666.98472311 219.54316332 646.02773032 164 611 C162.97640381 610.35949707 162.97640381 610.35949707 161.93212891 609.70605469 C145.97300955 599.68087593 130.6680591 588.83098961 116 577 C115.03449219 576.22914063 114.06898438 575.45828125 113.07421875 574.6640625 C107.4705495 570.14625278 102.08791268 565.43891156 96.80078125 560.5546875 C94.66996506 558.61109784 92.51602631 556.72469913 90.328125 554.84765625 C85.13571707 550.31752341 80.297666 545.44348041 75.4375 540.5625 C74.53064453 539.65951172 73.62378906 538.75652344 72.68945312 537.82617188 C67.58284648 532.71215898 62.687225 527.49917357 58 522 C57.03918104 520.90500183 56.07699455 519.81120172 55.11328125 518.71875 C48.19103193 510.79435526 41.75166827 502.59805048 35.54296875 494.10498047 C33.97731075 491.96904641 32.39569179 489.84561629 30.8125 487.72265625 C17.53984511 469.79636927 6.36111551 450.73010051 -4 431 C-4.4935498 430.06881348 -4.98709961 429.13762695 -5.49560547 428.17822266 C-45.13042328 352.99717709 -60.34400981 266.5081226 -35.14077759 82.83932495 C-26.19546779 54.28463845 -14.66201173 26.1099451 0 0 Z " fill="#015289" transform="translate(71,254)"/>
<path d="M0 0 C2.7624073 3.32849593 5.11277945 6.67653744 7.29296875 10.41015625 C7.91421631 11.46775146 8.53546387 12.52534668 9.17553711 13.61499023 C10.17145874 15.32150757 10.17145874 15.32150757 11.1875 17.0625 C12.62764714 19.51453176 14.07137035 21.96444829 15.515625 24.4140625 C15.8858226 25.04249557 16.2560202 25.67092865 16.63743591 26.31840515 C20.51527391 32.89190508 24.46873044 39.41861765 28.4375 45.9375 C28.96432877 46.80328171 28.96432877 46.80328171 29.50180054 47.68655396 C31.28664256 50.61951852 33.07246388 53.55188479 34.85888672 56.48388672 C38.05814442 61.73591792 41.24796375 66.99367938 44.43850708 72.25100708 C46.20861902 75.16757223 47.9793403 78.08376738 49.75 81 C50.45833625 82.16666489 51.16666959 83.33333156 51.875 84.5 C52.225625 85.0775 52.57625 85.655 52.9375 86.25 C56.125 91.49999999 56.125 91.49999999 57.18742371 93.24987793 C57.89600711 94.41695408 58.60459475 95.58402764 59.31318665 96.75109863 C61.08022876 99.66147916 62.84719784 102.57190397 64.61401367 105.48242188 C67.84667585 110.80749795 71.07995207 116.13219733 74.31582642 121.45532227 C81.37841948 133.07361894 88.43157876 144.69687303 95.41455078 156.36328125 C101.82498947 167.06246979 108.31562552 177.71323097 114.79443359 188.37109375 C118.71778787 194.82560945 122.63655127 201.28291379 126.55609131 207.73974609 C127.61418723 209.48276554 128.67231525 211.2257655 129.73046875 212.96875 C130.08008667 213.54463867 130.42970459 214.12052734 130.78991699 214.71386719 C132.9641966 218.29497485 135.13961892 221.87538587 137.31582642 225.45532227 C144.37176312 237.06266891 151.41855989 248.6748038 158.39477539 260.33032227 C162.8196601 267.7156817 167.28221609 275.0780508 171.75 282.4375 C172.10271973 283.01878662 172.45543945 283.60007324 172.81884766 284.19897461 C173.85269633 285.90248076 174.88728189 287.60553962 175.921875 289.30859375 C176.58638672 290.41187012 177.25089844 291.51514648 177.93554688 292.65185547 C179.36465884 294.96959925 180.81303164 297.23528606 182.33007812 299.49267578 C182.70658508 300.0659108 183.08309204 300.63914581 183.4710083 301.22975159 C184.51332223 302.81179726 185.57490299 304.38110091 186.63769531 305.94946289 C188.36868983 309.82558772 188.02955795 311.92383866 187 316 C185.96289062 318.39819336 185.96289062 318.39819336 184.65625 320.58984375 C184.15955811 321.4418335 183.66286621 322.29382324 183.15112305 323.17163086 C182.60625244 324.08436768 182.06138184 324.99710449 181.5 325.9375 C175.65391435 335.98365349 170.11600056 346.16128544 164.6875 356.4375 C164.30384277 357.16274872 163.92018555 357.88799744 163.52490234 358.63522339 C161.34579663 362.75464232 159.17087485 366.87623791 157 371 C156.01 371 155.02 371 154 371 C152.4128418 368.97827148 152.4128418 368.97827148 150.69921875 366.12109375 C150.05895752 365.06623779 149.41869629 364.01138184 148.7590332 362.92456055 C148.06837137 361.76229661 147.37786422 360.59994074 146.6875 359.4375 C145.97005414 358.24781389 145.25153559 357.05877406 144.53198242 355.87036133 C143.05837473 353.43316271 141.59065387 350.9925738 140.12792969 348.54882812 C137.05119773 343.41111245 133.92979759 338.30066339 130.8125 333.1875 C130.23959229 332.24487305 129.66668457 331.30224609 129.07641602 330.33105469 C124.76457559 323.23783557 120.40737904 316.17368105 116.03222656 309.11938477 C106.56134372 293.84822764 97.14252086 278.54514526 87.8125 263.1875 C82.92245511 255.1386001 77.99240761 247.11591344 73.02783203 239.11279297 C66.67664734 228.87343934 60.36861785 218.60760094 54.05712891 208.34375 C52.01224572 205.01990475 49.96542134 201.69726304 47.91796875 198.375 C41.52256298 187.99536891 35.14237025 177.60725016 28.8125 167.1875 C23.92384331 159.14084245 18.9947231 151.12068781 14.03222656 143.11938477 C4.56134249 127.84822567 -4.85733467 112.54505939 -14.1875 97.1875 C-18.80593906 89.58712851 -23.44824969 82.00214861 -28.125 74.4375 C-28.65762451 73.57471436 -29.19024902 72.71192871 -29.73901367 71.82299805 C-31.89068093 68.34940951 -34.04916776 64.90044959 -36.3671875 61.53515625 C-38 59 -38 59 -38 57 C-37.34 57 -36.68 57 -36 57 C-35.74734375 56.319375 -35.4946875 55.63875 -35.234375 54.9375 C-26.89745897 35.09775047 -12.86116789 17.0869802 0 0 Z " fill="#E71B23" transform="translate(161,230)"/>
<path d="M0 0 C23.76 0 47.52 0 72 0 C77.28 9.24 82.56 18.48 88 28 C90.475 32.29 92.95 36.58 95.5 41 C96.7065625 43.09988281 97.913125 45.19976562 99.15625 47.36328125 C101.53103334 51.48499595 103.93713912 55.58547945 106.37683105 59.66891479 C107.89555303 62.21659218 109.3994802 64.77283587 110.90161133 67.33032227 C111.62636757 68.55575475 112.35785619 69.77723362 113.09643555 70.99438477 C114.12318311 72.68775377 115.12463244 74.39638307 116.125 76.10546875 C116.70507812 77.07637451 117.28515625 78.04728027 117.8828125 79.04760742 C119.69998864 83.84986072 118.69428801 87.43589748 116.65576172 92.02832031 C116.08615723 93.03475586 115.51655273 94.04119141 114.9296875 95.078125 C114.28717041 96.22692139 113.64465332 97.37571777 112.98266602 98.55932617 C112.28027197 99.78964288 111.57771287 101.01986537 110.875 102.25 C110.1576741 103.52452875 109.44146226 104.7996851 108.72631836 106.07543945 C107.24283957 108.71879762 105.75373309 111.35886177 104.26025391 113.99658203 C100.99021427 119.77846015 97.77394213 125.59014517 94.55401611 131.40002441 C93.57458842 133.16570736 92.59311565 134.93023608 91.61083984 136.69433594 C91.01867676 137.75813477 90.42651367 138.82193359 89.81640625 139.91796875 C89.29506104 140.85406982 88.77371582 141.7901709 88.23657227 142.75463867 C87.46496981 144.15571029 86.7153142 145.5693716 86 147 C85.01 147 84.02 147 83 147 C82.58862793 146.27748047 82.17725586 145.55496094 81.75341797 144.81054688 C74.55589999 132.17548066 67.34813002 119.54829585 60 107 C54.27738134 97.2250515 48.64156489 87.40212919 43.03125 77.5625 C37.9388078 68.63261053 32.80910035 59.72468198 27.66455078 50.82470703 C24.3336599 45.05790968 21.01504726 39.28439774 17.71484375 33.5 C17.17744064 32.55821899 17.17744064 32.55821899 16.62918091 31.59741211 C14.90205822 28.56985211 13.17651248 25.54140642 11.453125 22.51171875 C10.82792969 21.41472656 10.20273437 20.31773437 9.55859375 19.1875 C8.66503174 17.61935547 8.66503174 17.61935547 7.75341797 16.01953125 C5.59659603 12.30530489 3.34328216 8.65545217 1.05102539 5.0234375 C0 3 0 3 0 0 Z " fill="#E51B22" transform="translate(319,297)"/>
</svg>
